<svg height="30" viewBox="0 0 30 30" width="30" xmlns="http://www.w3.org/2000/svg"><g fill="none" fill-rule="evenodd" stroke="#fff" stroke-width="1.5"><path d="m11.9235857 23.5413c1.6138286 0 2.9235857-1.3097571 2.9235857-2.9235429v-2.9235857h-2.9235857c-1.6138286 0-2.9235857 1.3097572-2.9235857 2.9235857 0 1.6137858 1.3097571 2.9235429 2.9235857 2.9235429z"/><path d="m9 14.7707143c0-1.6138286 1.3097571-2.9235857 2.9235857-2.9235857h2.9235857v5.8471285h-2.9235857c-1.6138286 0-2.9235857-1.3097571-2.9235857-2.9235428z"/><path d="m9 8.92358571c0-1.61382857 1.3097571-2.92358571 2.9235857-2.92358571h2.9235857v5.8471286h-2.9235857c-1.6138286 0-2.9235857-1.3097572-2.9235857-2.92354289z"/><path d="m14.8476857 6.00004286h2.9235429c1.6138285 0 2.9235857 1.30975714 2.9235857 2.92358571 0 1.61378573-1.3097572 2.92354283-2.9235857 2.92354283h-2.9235429z"/><path d="m20.6948143 14.7707143c0 1.6137857-1.3097572 2.9235428-2.9235857 2.9235428-1.6137857 0-2.9235429-1.3097571-2.9235429-2.9235428 0-1.6138286 1.3097572-2.9235857 2.9235429-2.9235857 1.6138285 0 2.9235857 1.3097571 2.9235857 2.9235857z"/></g></svg>