<svg enable-background="new 0 0 126 70" viewBox="0 0 126 70" xmlns="http://www.w3.org/2000/svg"><path d="m64.91 29.28-2.613.012v.962 5.72c0 .168.037 2.09-.784 3.135-.672.821-1.605.97-1.941 1.026-.291.045-.628.073-1.049.089v2.241c.915-.008 1.708-.058 2.654-.352 2.724-.877 3.732-3.508 3.732-6.121 0-.007-.001-.012-.001-.019h.001v-6.693z"/><path d="m74.681 42.112c-1.139.355-2.055.355-3.232.355h-4.203v-13.189h4.726c.598 0 1.326.037 1.905.15.654.13 2.074.56 3.176 1.98.579.766 1.364 2.241 1.364 4.576 0 2.616-1.009 5.25-3.736 6.128zm-.15-9.751c-.224-.187-.673-.524-1.383-.71-.635-.168-.971-.149-2.13-.149h-1.308v8.742h.654c1.326 0 2.111-.019 2.709-.112.336-.056 1.27-.205 1.943-1.027.822-1.046.785-2.97.785-3.138 0-1.963-.597-3.009-1.27-3.606z"/><path d="m87.085 42.467-2.597-4.894h-2.223v4.894h-2.447v-13.189h5.398c.598 0 2.372.056 3.549 1.607.766 1.009.803 2.148.803 2.578 0 .205-.018.859-.243 1.476-.205.541-.841 1.681-2.354 2.148l2.933 5.38zm-.841-10.667c-.43-.281-.934-.392-1.98-.392h-1.999v4.109h.878c1.438 0 2.335 0 2.932-.317.374-.205.99-.691.99-1.756.001-.336-.036-1.121-.821-1.644z"/><path d="m110.947 58.446-.019-1.121c-1.065.99-2.148 1.457-3.624 1.457-.803 0-2.634-.112-4.222-1.662-.766-.766-1.961-2.41-1.961-5.137 0-1.681.504-3.437 1.55-4.763.598-.747 2.167-2.298 4.838-2.298 3.311 0 5.548 2.447 5.548 4.803l-2.354.017c-.104-1.052-.915-2.597-3.213-2.597-.448 0-1.494.075-2.372.953-.635.654-1.308 1.775-1.308 3.811 0 .541 0 2.522 1.513 3.792.654.541 1.382.747 2.223.747 1.308 0 2.466-.635 2.97-1.868.112-.262.205-.579.28-1.177h-3.288v-2.167h5.548v7.211h-2.109z"/><path d="m88.435 47.144c.859 0 1.497.193 1.965.482.02.021.047.041.082.061.082.047.153.102.223.158.14.118.258.247.358.38.028.038.057.077.081.115.009.014.018.029.027.043.179.3.259.581.289.708.005.025.012.051.017.076h2.545s.04-.609-.324-1.412c-.001-.003-.003-.006-.004-.009-.027-.06-.057-.12-.089-.182-.021-.041-.043-.082-.065-.122-.015-.027-.031-.055-.047-.083-.366-.628-1.196-1.345-1.201-1.349 0 0-.001.001-.001.001-.035-.026-.069-.05-.101-.071-1.394-.928-2.792-1.02-3.623-1.02-2.671 0-4.109 1.158-4.707 2.167-.467.785-.504 1.644-.504 1.942 0 1.906 1.27 2.746 1.887 3.064.598.317 1.326.467 1.999.616l1.569.355c.654.15 1.849.317 2.298.915.224.299.243.654.243.785 0 1.233-1.289 1.588-1.569 1.644-.392.094-1.147.088-1.259.088-2.428 0-2.866-1.097-3.08-2.514h-2.398c0 4.798 4.59 4.799 5.374 4.799.598 0 2.727-.019 4.315-1.364.915-.785 1.289-1.7 1.289-2.895 0-1.214-.392-1.812-.766-2.223-.878-1.028-2.261-1.401-3.512-1.681l-1.363-.299c-1.214-.261-1.943-.43-2.261-.971-.112-.187-.168-.374-.168-.598 0-.205.037-.392.149-.598.539-1.026 2.201-1.008 2.332-1.008z"/><path d="m72.03 58.433v-13.188h9.377v2.204h-6.949v3.101h6.37v2.13h-6.37v3.53h7.416v2.223z"/><path d="m65.959 58.091c-1.139.355-2.055.355-3.232.355h-4.203v-13.188h4.726c.598 0 1.326.037 1.905.15.654.13 2.074.56 3.176 1.98.579.766 1.363 2.241 1.363 4.576.001 2.615-1.007 5.249-3.735 6.127zm-.149-9.751c-.224-.187-.672-.524-1.382-.71-.635-.168-.972-.149-2.13-.149h-1.308v8.742h.654c1.326 0 2.111-.019 2.709-.112.336-.056 1.27-.205 1.943-1.027.822-1.046.785-2.97.785-3.138-.001-1.962-.599-3.008-1.271-3.606z"/><path d="m96.357 58.446v-13.188h2.428v13.188z"/><path d="m123.426 58.446-5.772-9.247.149 9.247h-2.41v-13.188h2.223l5.847 9.303-.299-9.303h2.428v13.188z"/><path d="m51.247 48.511h.003l-24.694-48.511-24.752 48.614h.004c-.906 1.639-1.401 3.396-1.401 5.225 0 8.919 11.691 16.151 26.119 16.161h.001.001.028c14.441 0 26.149-7.236 26.149-16.161-.001-1.867-.515-3.66-1.458-5.328zm-24.819.141-15.386-9.372 15.485-9.959 15.389 9.897zm-1.139 2.204v15.491l-15.223-9.272-.007-15.495zm2.476-.12 15.23-9.276-.007 15.616-15.223 9.272zm14.638-14.148-15.876-10.21-15.796 10.159 15.825-31.08zm-33.036 26.573c-4.182-2.584-6.485-5.895-6.485-9.322 0-2.902 1.657-5.719 4.703-8.084l.006 12.7-.009.006 14.461 8.808c-4.797-.545-9.191-1.955-12.676-4.108zm34.377 0c-3.501 2.164-7.921 3.576-12.745 4.115l14.473-8.815-.009-.006.006-12.745c3.082 2.374 4.76 5.208 4.76 8.128 0 3.428-2.303 6.738-6.485 9.323z"/><path d="m60.022 65.86c-.289.436-.73.94-1.132 1.268-.074-.068-.204-.175-.277-.238.385-.306.821-.775 1.042-1.16zm3.555-2.989v.368h-4.897v-.368h2.338c-.102-.204-.238-.441-.368-.64l.356-.113c.153.227.345.538.447.753zm-2.247 2.486v1.505c0 .238-.051.34-.238.402-.187.057-.504.062-1.007.057-.023-.107-.074-.249-.13-.357.402.011.753.006.86.006.102-.006.125-.028.125-.113v-1.5h-1.562v-1.625h3.543v1.625zm-1.579-.335h2.779v-.957h-2.779zm2.734.702c.374.368.849.883 1.075 1.2l-.323.226c-.215-.323-.673-.855-1.059-1.239z"/><path d="m66.037 65.504c-.272.594-.702 1.177-1.11 1.562-.074-.062-.221-.192-.317-.249.419-.345.821-.883 1.059-1.415zm1.41-.566v1.834c0 .238-.057.351-.215.419-.17.062-.453.074-.855.074-.017-.113-.079-.277-.142-.391.334.006.629.011.719.006.09-.006.113-.028.113-.113v-1.828h-1.262c-.34 0-.538.028-.6.079-.022-.085-.085-.283-.141-.391.124-.034.249-.198.419-.447.096-.13.323-.481.555-.911h-1.398v-.362h1.579c.13-.249.249-.521.357-.781l.384.174c-.085.198-.187.408-.288.605h2.66v.362h-2.847c-.255.47-.538.917-.81 1.302h1.392v-.849h.379v.849h1.654v.368h-1.653zm.803.453c.447.43.974 1.03 1.212 1.421l-.328.192c-.232-.396-.741-1.013-1.189-1.449z"/><path d="m73.275 64.502c-.057.039-.107.079-.164.113.6.3 1.647.594 2.417.73-.079.074-.176.215-.232.306-.759-.159-1.834-.509-2.468-.861-.662.385-1.54.702-2.332.889-.045-.085-.124-.204-.209-.283.974-.204 2.094-.611 2.706-1.075zm-2.412-.498h-.34v-.979h2.168v-.34h-1.851v-.295h4.098v.294h-1.878v.34h2.208v.979h-.357v-.713h-1.851v.877h-.368v-.877h-1.828v.714zm.176.169h1.353v.255h-1.353zm3.498 1.478.243.164c-.328.351-.9.713-1.381.957.266.108.498.204.673.294l-.164.289c-.492-.26-1.455-.628-2.196-.832l.164-.243c.345.09.736.21 1.115.345.373-.164.843-.419 1.171-.662h-3.112v-.294h1.964c-.107-.147-.317-.351-.492-.487l.238-.164c.181.136.402.334.504.476l-.226.175h1.449zm-2.151-2.038v.249h-1.223v-.249zm2.236 0v.249h-1.257v-.249zm-1.257.56h1.404v.255h-1.404z"/><path d="m81.016 64.898v.3h-3.691v.232h-.368v-1.93c-.17.221-.357.419-.538.583-.051-.068-.187-.215-.266-.272.481-.408.945-1.025 1.217-1.664l.357.107c-.085.181-.181.362-.283.538h1.427c-.079-.176-.181-.38-.277-.538l.345-.102c.119.193.255.447.34.64h1.613v.289h-1.704v.408h1.432v.277h-1.432v.413h1.455v.272h-1.455v.447zm-4.064.736h3.736v1.687h-.385v-.277h-2.978v.277h-.374v-1.687zm1.868-2.553h-1.494v.408h1.494zm0 .685h-1.494v.413h1.494zm-1.494 1.132h1.494v-.447h-1.494zm0 1.047v.787h2.978v-.787z"/><path d="m83.64 62.277c-.142.413-.317.832-.515 1.223v3.804h-.357v-3.187c-.159.26-.334.492-.509.696-.034-.09-.147-.277-.221-.368.504-.555.968-1.404 1.251-2.27zm2.106 1.404c.345.962.934 1.919 1.557 2.4-.085.068-.215.198-.289.3-.606-.538-1.172-1.523-1.523-2.525v2.049h.94v.34h-.94v1.042h-.362v-1.042h-.962v-.34h.962v-2.026c-.368 1.013-.94 1.97-1.551 2.513-.068-.085-.187-.215-.272-.283.623-.492 1.228-1.46 1.579-2.428h-1.375v-.362h1.619v-1.149h.362v1.149h1.715v.362z"/><path d="m89.457 65.973c-.509.142-1.03.294-1.455.408l-.079-.317c.391-.085.94-.238 1.5-.391zm.589-1.183s0 .119-.006.159c-.096 1.438-.175 1.964-.356 2.145-.091.108-.193.142-.357.153-.136.011-.402.006-.673-.011-.006-.096-.04-.226-.102-.317.283.028.549.034.651.034.091 0 .153-.011.198-.068.13-.125.215-.594.294-1.783h-1.517c.062-.487.142-1.33.175-1.925l.323.017c-.034.498-.085 1.127-.142 1.596h.742c.068-.549.147-1.358.192-2.043h-1.353v-.328h1.704c-.057.758-.142 1.766-.215 2.372h.442zm1.777-2.564c-.039.085-.074.164-.119.249.351.549.968 1.172 1.494 1.528-.068.079-.153.238-.198.34-.504-.385-1.087-.991-1.477-1.545-.385.634-.894 1.177-1.438 1.557-.045-.068-.159-.226-.226-.294.679-.436 1.296-1.138 1.636-1.942zm1.161 2.593c-.232.606-.56 1.359-.849 1.879h.9v.334h-2.853v-.334h1.625c.289-.526.645-1.37.832-1.97zm-2.321-.068c.17.43.328.985.385 1.347l-.312.085c-.045-.374-.204-.928-.368-1.359zm1.738-.515h-1.67v-.328h1.67zm-.81 1.8c-.028-.362-.13-.922-.232-1.353l.3-.04c.107.43.209.979.243 1.347z"/><path d="m95.699 65.957c.028.096.09.238.136.3-.99.719-1.138.826-1.223.934-.04-.09-.142-.238-.21-.317.102-.068.283-.249.283-.504v-2.077h-.815v-.363h1.178v2.479zm-.527-2.582c-.175-.243-.549-.617-.849-.878l.243-.232c.3.249.685.606.86.838zm1.585-.379c0 .521-.181 1.126-.996 1.523-.04-.079-.17-.221-.238-.277.747-.352.877-.827.877-1.252v-.628h1.749v1.324c0 .159.017.21.102.21h.408c.079 0 .192-.011.26-.023.011.09.022.238.04.323-.068.023-.181.028-.289.028h-.436c-.362 0-.442-.147-.442-.543v-.963h-1.036v.278zm1.913 1.744c-.227.696-.617 1.24-1.104 1.658.413.278.906.481 1.455.6-.085.085-.181.232-.232.334-.583-.147-1.098-.379-1.529-.702-.453.317-.974.544-1.511.691-.028-.102-.113-.249-.187-.328.498-.119.985-.317 1.41-.594-.413-.379-.742-.837-.974-1.376l.045-.017h-.266v-.356h2.593l.068-.017zm-2.315.265c.209.453.521.855.911 1.178.391-.312.708-.708.923-1.178z"/><path d="m101.765 65.894c.028.102.09.255.13.328-1.042.736-1.2.855-1.285.968-.034-.096-.13-.26-.204-.345.102-.062.272-.221.272-.464v-2.077h-.911v-.374h1.291v2.445zm-.584-2.513c-.186-.238-.572-.617-.889-.877l.243-.243c.323.255.713.611.894.843zm3.708 1.041h-1.455v2.893h-.396v-2.893h-1.438v-.385h1.438v-1.867h.396v1.868h1.455z"/></svg>